<svg width="40" height="40" viewBox="0 0 40 40" fill="none" xmlns="http://www.w3.org/2000/svg">
<g clip-path="url(#clip0_1_871)">
<path d="M25.9167 21.6667C27.1667 21.6667 28.2667 20.9834 28.8334 19.95L34.8 9.13337C35.4167 8.03337 34.6167 6.66671 33.35 6.66671H8.68335L7.11669 3.33337H1.66669V6.66671H5.00002L11 19.3167L8.75002 23.3834C7.53335 25.6167 9.13335 28.3334 11.6667 28.3334H31.6667V25H11.6667L13.5 21.6667H25.9167ZM10.2667 10H30.5167L25.9167 18.3334H14.2167L10.2667 10ZM11.6667 30C9.83335 30 8.35002 31.5 8.35002 33.3334C8.35002 35.1667 9.83335 36.6667 11.6667 36.6667C13.5 36.6667 15 35.1667 15 33.3334C15 31.5 13.5 30 11.6667 30ZM28.3334 30C26.5 30 25.0167 31.5 25.0167 33.3334C25.0167 35.1667 26.5 36.6667 28.3334 36.6667C30.1667 36.6667 31.6667 35.1667 31.6667 33.3334C31.6667 31.5 30.1667 30 28.3334 30Z" fill="#B92728"/>
</g>
<defs>
<clipPath id="clip0_1_871">
<rect width="40" height="40" fill="white"/>
</clipPath>
</defs>
</svg>
