<svg width="34" height="26" viewBox="0 0 34 26" fill="none" xmlns="http://www.w3.org/2000/svg">
<mask id="mask0_1_495" style="mask-type:luminance" maskUnits="userSpaceOnUse" x="1" y="1" width="32" height="24">
<rect x="1" y="1" width="32" height="24" fill="white"/>
</mask>
<g mask="url(#mask0_1_495)">
<path fill-rule="evenodd" clip-rule="evenodd" d="M1 1V25H33V1H1Z" fill="#F7FCFF"/>
<mask id="mask1_1_495" style="mask-type:luminance" maskUnits="userSpaceOnUse" x="1" y="1" width="32" height="24">
<path fill-rule="evenodd" clip-rule="evenodd" d="M1 1V25H33V1H1Z" fill="white"/>
</mask>
<g mask="url(#mask1_1_495)">
<path fill-rule="evenodd" clip-rule="evenodd" d="M1 1V9H33V1H1Z" fill="#BF2714"/>
<path fill-rule="evenodd" clip-rule="evenodd" d="M1 17V25H33V17H1Z" fill="#272727"/>
<path d="M13.2603 11.2202L14.2593 11.266L14.0085 16.7358L13.0096 16.69L13.2603 11.2202Z" fill="#C09302"/>
<path d="M14.3041 11.5598L15.3025 11.6163L15.0518 16.0516L14.0533 15.9951L14.3041 11.5598Z" fill="#C09302"/>
<path d="M15.3485 11.8918L16.3451 11.9736L16.0944 15.0296L15.0977 14.9479L15.3485 11.8918Z" fill="#C09302"/>
<path d="M20.7397 11.2202L19.7407 11.266L19.9915 16.7358L20.9904 16.69L20.7397 11.2202Z" fill="#C09302"/>
<path d="M19.6959 11.5598L18.6975 11.6163L18.9482 16.0516L19.9467 15.9951L19.6959 11.5598Z" fill="#C09302"/>
<path d="M18.6515 11.8918L17.6549 11.9736L17.9056 15.0296L18.9023 14.9479L18.6515 11.8918Z" fill="#C09302"/>
<path d="M16.9733 16.3265L15.9986 16.1032L16.4112 14.3025L17.3859 14.5258L16.9733 16.3265Z" fill="#C09302"/>
<path d="M17.7195 16.3265L18.6943 16.1032L18.2817 14.3025L17.307 14.5258L17.7195 16.3265Z" fill="#C09302"/>
<path d="M17.4722 16.3099H16.4722V14.542H17.4722V16.3099Z" fill="#C09302"/>
<path d="M15.6348 11.9131L16.6345 11.9376L16.5761 14.3185L15.5764 14.294L15.6348 11.9131Z" fill="#C09302"/>
<path d="M17.3739 11.9131L18.3736 11.9376L18.3152 14.3185L17.3155 14.294L17.3739 11.9131Z" fill="#C09302"/>
<path d="M14.338 16.9227L14.5977 15.957C15.6587 16.2424 16.4734 16.3835 17.029 16.3835C17.5845 16.3835 18.3992 16.2424 19.4603 15.957L19.72 16.9227C18.5816 17.2289 17.6889 17.3835 17.029 17.3835C16.3691 17.3835 15.4763 17.2289 14.338 16.9227Z" fill="#C09302"/>
<path d="M13.2823 11.2227C13.2157 10.5621 13.6023 10.1149 14.2576 10.1719C14.473 10.1907 14.715 10.2544 15.0373 10.3638C15.1315 10.3961 15.1315 10.3961 15.223 10.4285C15.6661 10.5861 15.7864 10.6266 15.8114 10.6319C15.7132 10.6097 16.0024 10.0869 16.0687 9.99878C16.0766 10.0547 16.0433 10.0468 15.9634 10.0308L15.0613 9.85024L15.7034 9.19149C15.9279 8.96123 16.2268 8.84705 16.5678 8.84705C16.6032 8.84705 16.6362 8.8454 16.7446 8.83874C16.8247 8.83387 16.8247 8.83387 16.9148 8.83014C17.5388 8.80992 17.9862 8.98636 17.9862 9.62801C17.9862 9.85757 18.0152 10.2267 18.0631 10.5068C18.0792 10.601 18.1103 10.6892 18.0186 10.7279C18.0223 10.6945 18.2409 10.6082 18.5807 10.4661L18.6215 10.449C19.609 10.0369 19.7243 9.99867 20.0426 10.1921C20.2548 10.321 20.4567 10.5529 20.683 10.8986L19.8463 11.4463C19.7004 11.2233 19.5841 11.088 19.5288 11.0502C19.6546 11.1376 19.2309 11.2783 19.0067 11.3719L18.9666 11.3887C18.1978 11.7102 18.0964 11.7485 17.8766 11.7485C17.2784 11.7485 17.0636 11.1358 17.0048 10.2582C16.8203 10.8658 16.2696 11.6325 15.8158 11.6325C15.6172 11.6325 15.7127 11.664 14.8879 11.3706C14.8015 11.3401 14.8015 11.3401 14.7161 11.3107C14.4662 11.226 14.2859 11.1784 14.1722 11.1683C14.1769 11.1629 14.1937 11.1449 14.2124 11.1288L13.2823 11.2227Z" fill="#C09302"/>
</g>
</g>
<rect x="0.5" y="0.5" width="33" height="25" stroke="white" stroke-opacity="0.5"/>
</svg>
