<svg width="40" height="40" viewBox="0 0 40 40" fill="none" xmlns="http://www.w3.org/2000/svg">
<g clip-path="url(#clip0_1_869)">
<path d="M20 10.8333C26.3167 10.8333 31.95 14.3833 34.7 20C31.95 25.6167 26.3333 29.1667 20 29.1667C13.6667 29.1667 8.04999 25.6167 5.29999 20C8.04999 14.3833 13.6833 10.8333 20 10.8333ZM20 7.5C11.6667 7.5 4.54999 12.6833 1.66666 20C4.54999 27.3167 11.6667 32.5 20 32.5C28.3333 32.5 35.45 27.3167 38.3333 20C35.45 12.6833 28.3333 7.5 20 7.5ZM20 15.8333C22.3 15.8333 24.1667 17.7 24.1667 20C24.1667 22.3 22.3 24.1667 20 24.1667C17.7 24.1667 15.8333 22.3 15.8333 20C15.8333 17.7 17.7 15.8333 20 15.8333ZM20 12.5C15.8667 12.5 12.5 15.8667 12.5 20C12.5 24.1333 15.8667 27.5 20 27.5C24.1333 27.5 27.5 24.1333 27.5 20C27.5 15.8667 24.1333 12.5 20 12.5Z" fill="#B92728"/>
</g>
<defs>
<clipPath id="clip0_1_869">
<rect width="40" height="40" fill="white"/>
</clipPath>
</defs>
</svg>
