<svg width="60" height="60" viewBox="0 0 60 60" fill="none" xmlns="http://www.w3.org/2000/svg">
<g clip-path="url(#clip0_1_560)">
<path d="M29.975 5C16.175 5 5 16.2 5 30C5 43.8 16.175 55 29.975 55C43.8 55 55 43.8 55 30C55 16.2 43.8 5 29.975 5ZM30 50C18.95 50 10 41.05 10 30C10 18.95 18.95 10 30 10C41.05 10 50 18.95 50 30C50 41.05 41.05 50 30 50ZM38.75 27.5C40.825 27.5 42.5 25.825 42.5 23.75C42.5 21.675 40.825 20 38.75 20C36.675 20 35 21.675 35 23.75C35 25.825 36.675 27.5 38.75 27.5ZM21.25 27.5C23.325 27.5 25 25.825 25 23.75C25 21.675 23.325 20 21.25 20C19.175 20 17.5 21.675 17.5 23.75C17.5 25.825 19.175 27.5 21.25 27.5ZM30 43.75C35.825 43.75 40.775 40.1 42.775 35H17.225C19.225 40.1 24.175 43.75 30 43.75Z" fill="white"/>
</g>
<defs>
<clipPath id="clip0_1_560">
<rect width="60" height="60" fill="white"/>
</clipPath>
</defs>
</svg>
