<svg width="60" height="60" viewBox="0 0 60 60" fill="none" xmlns="http://www.w3.org/2000/svg">
<g clip-path="url(#clip0_1_561)">
<path d="M47.5 35V15C47.5 12.25 45.25 10 42.5 10H7.5C4.75 10 2.5 12.25 2.5 15V35C2.5 37.75 4.75 40 7.5 40H42.5C45.25 40 47.5 37.75 47.5 35ZM42.5 35H7.5V15H42.5V35ZM25 17.5C20.85 17.5 17.5 20.85 17.5 25C17.5 29.15 20.85 32.5 25 32.5C29.15 32.5 32.5 29.15 32.5 25C32.5 20.85 29.15 17.5 25 17.5ZM57.5 17.5V45C57.5 47.75 55.25 50 52.5 50H10C10 47.5 10 47.75 10 45H52.5V17.5C55.25 17.5 55 17.5 57.5 17.5Z" fill="white"/>
</g>
<defs>
<clipPath id="clip0_1_561">
<rect width="60" height="60" fill="white"/>
</clipPath>
</defs>
</svg>
