<svg width="70" height="70" viewBox="0 0 70 70" fill="none" xmlns="http://www.w3.org/2000/svg">
<g clip-path="url(#clip0_1_554)">
<path d="M55.4166 20.4166C55.4166 17.2083 52.7916 14.5833 49.5833 14.5833H40.8333V20.4166H49.5833V28.1458L39.4333 40.8333H29.1666V26.2499H17.5C11.0541 26.2499 5.83331 31.4708 5.83331 37.9166V46.6666H11.6666C11.6666 51.5083 15.575 55.4166 20.4166 55.4166C25.2583 55.4166 29.1666 51.5083 29.1666 46.6666H42.2333L55.4166 30.1874V20.4166ZM20.4166 49.5833C18.8125 49.5833 17.5 48.2708 17.5 46.6666H23.3333C23.3333 48.2708 22.0208 49.5833 20.4166 49.5833Z" fill="white"/>
<path d="M29.1666 17.5H14.5833V23.3333H29.1666V17.5Z" fill="white"/>
<path d="M55.4166 37.9165C50.575 37.9165 46.6666 41.8248 46.6666 46.6665C46.6666 51.5082 50.575 55.4165 55.4166 55.4165C60.2583 55.4165 64.1666 51.5082 64.1666 46.6665C64.1666 41.8248 60.2583 37.9165 55.4166 37.9165ZM55.4166 49.5832C53.8125 49.5832 52.5 48.2707 52.5 46.6665C52.5 45.0623 53.8125 43.7498 55.4166 43.7498C57.0208 43.7498 58.3333 45.0623 58.3333 46.6665C58.3333 48.2707 57.0208 49.5832 55.4166 49.5832Z" fill="white"/>
</g>
<defs>
<clipPath id="clip0_1_554">
<rect width="70" height="70" fill="white"/>
</clipPath>
</defs>
</svg>
