<svg width="25" height="24" viewBox="0 0 25 24" fill="none" xmlns="http://www.w3.org/2000/svg">
<path d="M13.3486 2.75137C12.8799 2.28275 12.1201 2.28275 11.6515 2.75137L3.2515 11.1514C2.78287 11.62 2.78287 12.3798 3.2515 12.8484C3.72013 13.3171 4.47992 13.3171 4.94855 12.8484L5.30002 12.497V20.3999C5.30002 21.0626 5.83728 21.5999 6.50002 21.5999H8.90002C9.56277 21.5999 10.1 21.0626 10.1 20.3999V17.9999C10.1 17.3372 10.6373 16.7999 11.3 16.7999H13.7C14.3628 16.7999 14.9 17.3372 14.9 17.9999V20.3999C14.9 21.0626 15.4373 21.5999 16.1 21.5999H18.5C19.1628 21.5999 19.7 21.0626 19.7 20.3999V12.497L20.0515 12.8484C20.5201 13.3171 21.2799 13.3171 21.7486 12.8484C22.2172 12.3798 22.2172 11.62 21.7486 11.1514L13.3486 2.75137Z" fill="#FBFCFC"/>
</svg>
