<svg width="35" height="35" viewBox="0 0 35 35" fill="none" xmlns="http://www.w3.org/2000/svg">
<g clip-path="url(#clip0_1_491)">
<path d="M17.5 8.60409C19.1917 8.60409 20.5625 9.97492 20.5625 11.6666C20.5625 13.3583 19.1917 14.7291 17.5 14.7291C15.8083 14.7291 14.4375 13.3583 14.4375 11.6666C14.4375 9.97492 15.8083 8.60409 17.5 8.60409ZM17.5 21.7291C21.8313 21.7291 26.3958 23.8583 26.3958 24.7916V26.3958H8.60417V24.7916C8.60417 23.8583 13.1688 21.7291 17.5 21.7291ZM17.5 5.83325C14.2771 5.83325 11.6667 8.44367 11.6667 11.6666C11.6667 14.8895 14.2771 17.4999 17.5 17.4999C20.7229 17.4999 23.3333 14.8895 23.3333 11.6666C23.3333 8.44367 20.7229 5.83325 17.5 5.83325ZM17.5 18.9583C13.6063 18.9583 5.83334 20.9124 5.83334 24.7916V29.1666H29.1667V24.7916C29.1667 20.9124 21.3938 18.9583 17.5 18.9583Z" fill="white"/>
</g>
<defs>
<clipPath id="clip0_1_491">
<rect width="35" height="35" fill="white"/>
</clipPath>
</defs>
</svg>
