<svg width="35" height="35" viewBox="0 0 35 35" fill="none" xmlns="http://www.w3.org/2000/svg">
<g clip-path="url(#clip0_1_488)">
<path d="M22.6771 18.9584C23.7708 18.9584 24.7333 18.3605 25.2292 17.4563L30.45 7.99175C30.9896 7.02925 30.2896 5.83341 29.1813 5.83341H7.59793L6.22709 2.91675H1.45834V5.83341H4.37501L9.62501 16.9022L7.65626 20.4605C6.59168 22.4147 7.99168 24.7917 10.2083 24.7917H27.7083V21.8751H10.2083L11.8125 18.9584H22.6771ZM8.98334 8.75008H26.7021L22.6771 16.0417H12.4396L8.98334 8.75008ZM10.2083 26.2501C8.60418 26.2501 7.30626 27.5626 7.30626 29.1667C7.30626 30.7709 8.60418 32.0834 10.2083 32.0834C11.8125 32.0834 13.125 30.7709 13.125 29.1667C13.125 27.5626 11.8125 26.2501 10.2083 26.2501ZM24.7917 26.2501C23.1875 26.2501 21.8896 27.5626 21.8896 29.1667C21.8896 30.7709 23.1875 32.0834 24.7917 32.0834C26.3958 32.0834 27.7083 30.7709 27.7083 29.1667C27.7083 27.5626 26.3958 26.2501 24.7917 26.2501Z" fill="white"/>
</g>
<defs>
<clipPath id="clip0_1_488">
<rect width="35" height="35" fill="white"/>
</clipPath>
</defs>
</svg>
