<svg width="24" height="22" viewBox="0 0 24 22" fill="none" xmlns="http://www.w3.org/2000/svg">
<path fill-rule="evenodd" clip-rule="evenodd" d="M15.206 15.1224L18.296 17.8777C18.686 18.2313 19.316 18.2313 19.706 17.8777C20.098 17.525 20.098 16.9545 19.706 16.6009L16.626 13.8509C17.496 12.8081 18.013 11.5152 18.013 10.1134C18.013 6.65807 14.876 3.85718 11.007 3.85718C7.137 3.85718 4 6.65807 4 10.1134C4 13.5688 7.137 16.3697 11.007 16.3697C12.582 16.3697 14.036 15.9054 15.206 15.1224ZM11.006 14.5822C8.243 14.5822 6.002 12.5822 6.002 10.1134C6.002 7.64557 8.242 5.64468 11.007 5.64468C13.771 5.64468 16.011 7.64468 16.011 10.1134C16.011 12.5813 13.771 14.5822 11.008 14.5822H11.006Z" fill="#B92728"/>
</svg>
